<svg xmlns="http://www.w3.org/2000/svg" width="180" height="53" fill-rule="evenodd"><path d="M29.36 37.866a11.27 11.27 0 0 0 .262 2.381c1.107 5.038 5.595 8.808 10.964 8.808s9.857-3.77 10.964-8.808a11.27 11.27 0 0 0 .262-2.381v-.04a11.23 11.23 0 0 0-11.226-11.23 11.23 11.23 0 0 0-11.226 11.23v.04zm-24.833-.38a33.37 33.37 0 0 1 .922-6.796l-.03-.014c-1.55-.723-2.22-2.564-1.497-4.114l4.39-9.42c.723-1.55 2.565-2.22 4.115-1.498l.777.362a35.75 35.75 0 0 1 1.69-1.77l-.445-.77c-.854-1.48-.347-3.373 1.133-4.228L24.58 4.04c1.482-.856 3.375-.348 4.23 1.133l.263.455a37.71 37.71 0 0 1 4.126-1.113V3.8A3.81 3.81 0 0 1 37.008 0h7.54a3.81 3.81 0 0 1 3.81 3.81v.572a37.74 37.74 0 0 1 4.78 1.245l.263-.455c.855-1.48 2.748-1.988 4.23-1.134l8.998 5.198c1.48.855 1.987 2.748 1.133 4.228l-.445.77a35.75 35.75 0 0 1 1.69 1.77l.777-.362c1.55-.723 3.392-.053 4.114 1.497l4.39 9.422c.722 1.55.052 3.39-1.497 4.114l-.03.014a33.37 33.37 0 0 1 .922 6.796h1.4a2.86 2.86 0 0 1 2.858 2.858v2.923a2.86 2.86 0 0 1-2.858 2.858h-25.92c-2.695 4.08-7.322 6.77-12.576 6.77s-9.88-2.69-12.576-6.77H2.858A2.86 2.86 0 0 1 0 43.266v-2.923a2.86 2.86 0 0 1 2.858-2.858h1.67zm70.772 0c-.084-2.43-.45-4.822-1.088-7.14l-.266-.97 1.84-.858c.358-.167.512-.592.345-.95l-4.402-9.445c-.174-.34-.588-.484-.938-.32l-2.415 1.127-.588-.695a33.37 33.37 0 0 0-2.78-2.908l-.696-.646 1.387-2.405c.197-.342.08-.778-.262-.976l-9.023-5.212c-.338-.178-.758-.058-.95.275L54.2 8.532l-.938-.34a35.3 35.3 0 0 0-4.915-1.384v8.85h.385c1.052 0 1.905.853 1.905 1.905V25.8a1.9 1.9 0 0 1-.131.695c1.598 1.402 2.896 3.138 3.788 5.097a2.9 2.9 0 0 1 .173-.005h1.577a2.86 2.86 0 0 1 2.858 2.858v3.04H75.3zM33.198 6.95a35.27 35.27 0 0 0-4.261 1.243l-.938.34-1.252-2.17c-.192-.333-.613-.453-.95-.275l-9.023 5.212c-.342.197-.46.634-.26.976L17.9 14.68l-.696.646a33.37 33.37 0 0 0-2.78 2.908l-.588.695L11.42 17.8c-.35-.163-.763-.02-.938.32L6.08 27.567c-.167.358-.012.783.346.95l1.84.858-.266.97c-.637 2.32-1.004 4.7-1.088 7.14h15.35v-3.04a2.86 2.86 0 0 1 2.858-2.858h1.577a2.9 2.9 0 0 1 .173.005c1.018-2.24 2.57-4.185 4.49-5.677-.002-.038-.003-.077-.003-.116v-8.235c0-1.032.82-1.872 1.845-1.904v-8.7zm10.31 33.943c-4.56.545-6.66-3.267-6.287-3.64.246-.246.628-.26.96-.27 1.525-.04 3.683 1.65 4.12 1.643.848-.016 2.123-1.296 2.96-2.35.35-.44 2.535-1.106 2.292.053-.786 3.758-3.462 4.492-4.044 4.562zM37.16 33.78c4.56-.545 6.66 3.267 6.287 3.64-.246.246-.628.26-.96.27-1.525.04-3.683-1.65-4.12-1.643-.848.016-2.123 1.296-2.96 2.35-.35.44-2.534 1.106-2.292-.053.786-3.76 3.462-4.493 4.044-4.562z" fill="#fd8105" fill-rule="nonzero"/><path d="M104.088 15.654c.794.242 1.403.647 1.825 1.214s.634 1.265.634 2.094c0 .74-.195 1.386-.586 1.94s-.948.985-1.67 1.29-1.572.46-2.546.46h-5.11c-.525 0-.93-.14-1.2-.42S95 21.55 95 21.027v-10.23c0-.523.14-.924.423-1.205s.685-.42 1.2-.42h4.918c1.422 0 2.552.315 3.39.946S106.2 11.6 106.2 12.67c0 .688-.186 1.297-.557 1.826s-.9.915-1.556 1.157zm-5.648-1.185h2.517c.666 0 1.153-.102 1.46-.306s.46-.53.46-.975c0-.472-.154-.816-.46-1.033s-.794-.325-1.46-.325H98.44v2.64zm2.863 5.526c.704 0 1.207-.112 1.508-.335s.45-.6.45-1.1-.15-.876-.45-1.1-.804-.335-1.508-.335H98.44v2.868h2.863zm20.023.497a1.64 1.64 0 0 1 .173.707c0 .42-.17.778-.51 1.07s-.727.44-1.162.44c-.295 0-.564-.076-.807-.23a1.55 1.55 0 0 1-.576-.688l-.865-1.93h-6.225l-.884 1.93c-.14.306-.336.535-.586.688s-.522.23-.817.23a1.8 1.8 0 0 1-1.182-.44c-.352-.293-.528-.65-.528-1.07a1.64 1.64 0 0 1 .173-.707l5.072-10.363a1.78 1.78 0 0 1 .74-.794c.327-.185.688-.277 1.086-.277a2.18 2.18 0 0 1 1.076.277c.333.185.583.45.75.794l5.072 10.363zm-8.78-3.27h3.843l-1.92-4.264-1.92 4.264zm20.8-8.145c.487 0 .887.16 1.2.478s.47.733.47 1.243v10.23c0 .523-.154.943-.46 1.262s-.704.478-1.19.478c-.576 0-1.012-.19-1.306-.574l-5.84-7.247v6.08c0 .523-.147.943-.442 1.262s-.692.478-1.19.478c-.487 0-.884-.16-1.19-.478s-.46-.74-.46-1.262v-10.23c0-.5.154-.924.46-1.243s.704-.478 1.19-.478c.55 0 .98.19 1.287.574l5.84 7.228v-6.08c0-.523.15-.94.45-1.252s.695-.468 1.182-.468zm17.064 11.415a1.64 1.64 0 0 1 .173.707c0 .42-.17.778-.51 1.07s-.727.44-1.162.44c-.295 0-.564-.076-.807-.23a1.55 1.55 0 0 1-.576-.688l-.865-1.93h-6.225l-.884 1.93c-.14.306-.336.535-.586.688s-.522.23-.817.23a1.8 1.8 0 0 1-1.182-.44c-.352-.293-.528-.65-.528-1.07a1.64 1.64 0 0 1 .173-.707l5.072-10.363a1.78 1.78 0 0 1 .74-.794c.327-.185.688-.277 1.086-.277a2.18 2.18 0 0 1 1.076.277c.333.185.583.45.75.794l5.072 10.363zm-8.78-3.27h3.843l-1.92-4.264-1.92 4.264zm20.8-8.145c.487 0 .887.16 1.2.478s.47.733.47 1.243v10.23c0 .523-.154.943-.46 1.262s-.704.478-1.19.478c-.576 0-1.012-.19-1.306-.574l-5.84-7.247v6.08c0 .523-.147.943-.442 1.262s-.692.478-1.19.478c-.487 0-.884-.16-1.19-.478s-.46-.74-.46-1.262v-10.23c0-.5.154-.924.46-1.243s.704-.478 1.19-.478c.55 0 .98.19 1.287.574l5.84 7.228v-6.08c0-.523.15-.94.45-1.252s.695-.468 1.182-.468zm10.532 13.748c-1.383 0-2.584-.284-3.602-.85s-1.803-1.37-2.354-2.41-.826-2.26-.826-3.662.275-2.623.826-3.662 1.335-1.84 2.354-2.4 2.22-.84 3.602-.84 2.584.28 3.602.84a5.7 5.7 0 0 1 2.344 2.4c.544 1.04.817 2.26.817 3.662s-.275 2.623-.826 3.662-1.335 1.842-2.354 2.41-2.213.85-3.583.85zm0-2.696c1.025 0 1.825-.36 2.402-1.08s.865-1.77.865-3.145-.29-2.422-.874-3.136-1.38-1.07-2.392-1.07c-1.025 0-1.825.354-2.402 1.06s-.865 1.756-.865 3.145.288 2.44.865 3.155 1.377 1.07 2.402 1.07zm-60.693 6.396c.7 0 1.252.226 1.688.677s.653 1.038.653 1.76v14.736c0 .686-.2 1.228-.6 1.625s-.925.596-1.58.596c-.635 0-1.157-.2-1.565-.596s-.612-.94-.612-1.625v-7.964l-3.103 5.688c-.308.578-.635.99-.98 1.232s-.753.366-1.225.366-.88-.122-1.225-.366-.67-.655-.98-1.232l-3.076-5.526v7.8c0 .668-.204 1.205-.612 1.612s-.94.61-1.592.61c-.635 0-1.157-.2-1.565-.596s-.612-.94-.612-1.625V28.962c0-.722.222-1.31.667-1.76s1.012-.677 1.7-.677a2.27 2.27 0 0 1 1.334.42c.4.28.735.682 1.007 1.205l5.008 9.372L110 28.15c.563-1.084 1.325-1.625 2.286-1.625zm8.32 19.395c-.762 0-1.365-.22-1.8-.664s-.667-1.043-.667-1.8V28.962c0-.74.222-1.332.667-1.774s1.048-.664 1.8-.664c.78 0 1.397.22 1.85.664s.68 1.034.68 1.774v14.492c0 .758-.227 1.36-.68 1.8s-1.07.664-1.85.664zm20.732-19.395c.7 0 1.257.226 1.7.677s.667 1.038.667 1.76v14.492c0 .74-.218 1.336-.653 1.788s-.998.677-1.688.677c-.817 0-1.433-.27-1.85-.813l-8.274-10.266v8.614c0 .74-.21 1.336-.626 1.788s-.98.677-1.688.677c-.7 0-1.252-.226-1.688-.677s-.653-1.047-.653-1.788V28.962c0-.722.218-1.31.653-1.76s.998-.677 1.688-.677c.78 0 1.388.27 1.824.813l8.274 10.24v-8.614c0-.74.213-1.332.64-1.774s.984-.664 1.674-.664zm8.13 19.232c-.744 0-1.316-.2-1.715-.596s-.6-.966-.6-1.707V28.962c0-.74.2-1.31.6-1.707s.97-.596 1.715-.596h9.417c.78 0 1.37.163 1.77.488s.6.795.6 1.41c0 1.3-.79 1.95-2.368 1.95h-6.86v3.63h6.315c1.58 0 2.368.64 2.368 1.923 0 .614-.2 1.084-.6 1.41s-.99.488-1.77.488h-6.315V41.9h6.86c1.58 0 2.368.65 2.368 1.95 0 .614-.2 1.084-.6 1.41s-.99.488-1.77.488h-9.417zm30.04-3.17c.327.488.5.948.5 1.38 0 .578-.24 1.06-.72 1.45s-1.04.582-1.674.582a2.61 2.61 0 0 1-1.225-.298c-.38-.2-.708-.497-.98-.894l-3.538-5.147c-.254-.36-.522-.628-.803-.8a1.87 1.87 0 0 0-.993-.257h-1.77v4.85c0 .758-.218 1.36-.653 1.8s-1.034.664-1.796.664-1.365-.22-1.8-.664-.667-1.043-.667-1.8V28.962c0-.74.2-1.31.6-1.707s.97-.596 1.715-.596h6.832c2.323 0 4.07.5 5.24 1.503s1.756 2.45 1.756 4.348c0 1.445-.4 2.668-1.198 3.67s-1.923 1.675-3.375 2.018c.6.1 1.12.29 1.565.596s.885.767 1.32 1.38l1.688 2.41zm-7.784-7.72c1.107 0 1.9-.172 2.382-.515s.72-.903.72-1.68c0-.795-.24-1.368-.72-1.72s-1.275-.528-2.382-.528h-3.484v4.442h3.484z" fill="#47494f"/></svg>